<svg xmlns="http://www.w3.org/2000/svg" xmlns:xlink="http://www.w3.org/1999/xlink" width="24" height="24" viewBox="0 0 24 24">
    <defs>
        <path id="r182hix9ga" d="M0 0.585L19.264 0.585 19.264 20.652 0 20.652z"/>
    </defs>
    <g fill="none" fill-rule="evenodd">
        <g transform="translate(3 2)">
            <mask id="f9t0u27cbb" fill="#fff">
                <use xlink:href="#r182hix9ga"/>
            </mask>
            <path fill="#123" d="M15.605 12.77h-1.28V9.928c0-.655-.387-1.006-.982-1.006-.664 0-1.091.4-1.091 1.211v2.639h-1.28V5.816h1.28v2.616c.307-.46.804-.684 1.478-.684.546 0 .992.176 1.34.537.357.362.535.85.535 1.486v3zm-9.202-1.186c.945 0 1.752-.557 1.995-1.417h1.397c-.342 1.655-1.65 2.74-3.392 2.74-2.024 0-3.63-1.487-3.63-3.556 0-2.07 1.606-3.557 3.63-3.557 1.76 0 3.077 1.106 3.402 2.79H8.412C8.2 7.668 7.365 7.098 6.403 7.098c-1.36 0-2.266.956-2.266 2.253 0 1.296 1.03 2.233 2.266 2.233zM9.633.585C4.312.585 0 4.515 0 9.36c0 3.58 1.522 5.288 3.607 6.846l.01.004v4.2c0 .199.229.313.39.194l3.653-2.672.079.033c.612.112 1.245.17 1.893.17 5.32 0 9.632-3.928 9.632-8.775 0-4.846-4.312-8.775-9.632-8.775z" mask="url(#f9t0u27cbb)"/>
        </g>
    </g>
</svg>
