<svg xmlns="http://www.w3.org/2000/svg" width="48" height="48" viewBox="0 0 48 48">
    <defs>
        <filter id="o3u3hdibfa">
            <feColorMatrix in="SourceGraphic" values="0 0 0 0 0.066355 0 0 0 0 0.132985 0 0 0 0 0.199615 0 0 0 1.000000 0"/>
        </filter>
    </defs>
    <g fill="none" fill-rule="evenodd" opacity=".85">
        <g filter="url(#o3u3hdibfa)">
            <path d="M0 0H48V48H0z"/>
            <path fill="#000" fill-rule="nonzero" d="M44 13.96V32c0 2.2-1.8 4-4 4H12l-8 8V8c0-2.2 1.8-4 4-4h20.2c-.12.64-.2 1.32-.2 2 0 5.52 4.48 10 10 10 2.26 0 4.32-.78 6-2.04zM32 6c0 3.32 2.68 6 6 6s6-2.68 6-6-2.68-6-6-6-6 2.68-6 6z"/>
        </g>
    </g>
</svg>
