<svg xmlns="http://www.w3.org/2000/svg" width="111" height="32" viewBox="0 0 111 32">
    <defs>
        <filter id="it97frl4sa">
            <feColorMatrix in="SourceGraphic" values="0 0 0 0 0.298039 0 0 0 0 0.431373 0 0 0 0 0.960784 0 0 0 1.000000 0"/>
        </filter>
        <filter id="23mj7qcz8b">
            <feColorMatrix in="SourceGraphic" values="0 0 0 0 0.066355 0 0 0 0 0.132985 0 0 0 0 0.199615 0 0 0 1.000000 0"/>
        </filter>
    </defs>
    <g fill="none" fill-rule="evenodd">
        <g>
            <g filter="url(#it97frl4sa)">
                <path fill="#4C6EF5" d="M17.836 8l1.05 12-1.05 12h-3.672l-1.05-12 1.05-12h3.672zM4.196 0L5.77 16 4.197 32H0V0h4.197zM32 0v32h-4.197L26.23 16l1.573-16H32z"/>
            </g>
            <g filter="url(#23mj7qcz8b)">
                <g>
                    <path fill="#000" fill-rule="nonzero" d="M5.274 0c2.007 0 3.66 1.59 3.762 3.57l.005.193V9.39c0 2.005-1.591 3.674-3.574 3.777l-.193.005H0V0h5.274zm12.09 0c2.025 0 3.662 1.572 3.762 3.569l.005.194V9.39c0 2.023-1.591 3.676-3.574 3.777l-.193.005h-1.507c-2.007 0-3.66-1.607-3.762-3.59l-.005-.192V3.763c0-2.005 1.59-3.657 3.574-3.758L15.857 0h1.507zM29.4 0c2.026 0 3.662 1.572 3.762 3.569l.005.194V9.39c0 2.023-1.59 3.676-3.574 3.777l-.193.005h-1.507c-2.007 0-3.66-1.607-3.762-3.59l-.005-.192V3.763c0-2.005 1.591-3.657 3.574-3.758L27.893 0H29.4zm11.77 0c2.147 0 3.899 1.731 3.899 3.876v.376h-2.637v-.376c0-.677-.565-1.242-1.262-1.242h-.885c-.829 0-1.243.339-1.243.866 0 1.298 6.215 1.975 6.215 5.983 0 2.088-1.695 3.688-3.899 3.688h-1.262c-2.147 0-3.88-1.731-3.88-3.876V8.73h2.637v.565c0 .677.565 1.242 1.243 1.242h1.262c.773 0 1.262-.452 1.262-1.054 0-2.126-6.215-2.145-6.215-5.983 0-2.051 1.638-3.5 3.88-3.5zm12.809 0l3.315 9.013v4.158h-2.637v-2.296H50.89v2.296h-2.637V9.013L51.568 0h2.41zm9.735 0l3.033 7.808V0h2.637v13.17h-3.372L62.98 5.363v7.809h-2.637V0h3.371zM5.243 2.613H2.62v7.892h2.622c.576 0 1.055-.443 1.116-1.008l.007-.122V3.743c0-.622-.487-1.13-1.123-1.13zm12.143 0h-1.498c-.594 0-1.058.443-1.117 1.007l-.006.123v5.632c0 .58.44 1.061 1.001 1.123l.122.007h1.498c.577 0 1.056-.443 1.117-1.008l.006-.122V3.743c0-.64-.486-1.13-1.123-1.13zm12.036 0h-1.497c-.595 0-1.058.443-1.117 1.007l-.007.123v5.632c0 .58.44 1.061 1.002 1.123l.122.007h1.497c.577 0 1.056-.443 1.117-1.008l.007-.122V3.743c0-.64-.487-1.13-1.124-1.13zM52.8 4.319l-1.444 3.893h2.888L52.8 4.319zM2.505 18.503l2.015 4.384 2.016-4.384H9.04v13.17H6.404v-6.98l-1.13 2.428H3.767l-1.13-2.428v6.98H0v-13.17h2.505zm14.859 0c2.025 0 3.662 1.572 3.762 3.569l.005.194v5.626c0 2.023-1.591 3.676-3.574 3.777l-.193.005h-1.507c-2.007 0-3.66-1.607-3.762-3.59l-.005-.192v-5.626c0-2.005 1.59-3.657 3.574-3.758l.193-.005h1.507zm15.803 0v2.634h-3.202v10.537h-2.637V21.137h-3.202v-2.634h9.041zm8.323 0c2.025 0 3.662 1.572 3.762 3.569l.005.194v5.626c0 2.023-1.59 3.676-3.574 3.777l-.193.005h-1.507c-2.007 0-3.66-1.607-3.762-3.59l-.005-.192v-5.626c0-2.005 1.591-3.657 3.574-3.758l.193-.005h1.507zm12.037 0c2.025 0 3.661 1.572 3.762 3.569l.005.194v1.13c0 1.472-.824 2.722-2.046 3.356l-.177.086 2.223 4.836h-2.901l-2.053-4.516h-1.45v4.516h-2.637v-13.17h5.274zM17.386 21.17h-1.498c-.594 0-1.058.443-1.117 1.008l-.006.122v5.632c0 .58.44 1.062 1.001 1.123l.122.007h1.498c.577 0 1.056-.443 1.117-1.007l.006-.123v-5.632c0-.64-.486-1.13-1.123-1.13zm24.073 0H39.96c-.594 0-1.058.443-1.117 1.008l-.006.122v5.632c0 .58.44 1.062 1.001 1.123l.122.007h1.498c.577 0 1.055-.443 1.117-1.007l.006-.123v-5.632c0-.64-.486-1.13-1.123-1.13zm12.036 0h-2.62v3.36h2.62c.595 0 1.058-.423 1.117-.995l.007-.125v-1.12c0-.635-.487-1.12-1.124-1.12z" transform="translate(40.828)"/>
                </g>
            </g>
        </g>
    </g>
</svg>
