<svg xmlns="http://www.w3.org/2000/svg">

    <symbol id="doosan" width="111px" height="32px" viewBox="0 0 111 32" preserveAspectRatio="xMinYMin">
        <defs>
            <filter id="it97frl4sa">
                <feColorMatrix in="SourceGraphic" values="0 0 0 0 0.298039 0 0 0 0 0.431373 0 0 0 0 0.960784 0 0 0 1.000000 0"/>
            </filter>
            <filter id="23mj7qcz8b">
                <feColorMatrix in="SourceGraphic" values="0 0 0 0 0.066355 0 0 0 0 0.132985 0 0 0 0 0.199615 0 0 0 1.000000 0"/>
            </filter>
        </defs>
        <g fill="none" fill-rule="evenodd">
            <g filter="#it97frl4sa">
                <path fill="#4C6EF5" d="M17.836 8l1.05 12-1.05 12h-3.672l-1.05-12 1.05-12h3.672zM4.196 0L5.77 16 4.197 32H0V0h4.197zM32 0v32h-4.197L26.23 16l1.573-16H32z"/>
            </g>
            <g filter="#23mj7qcz8b">
                <path fill="#000000" fill-rule="nonzero" d="M5.274 0c2.007 0 3.66 1.59 3.762 3.57l.005.193V9.39c0 2.005-1.591 3.674-3.574 3.777l-.193.005H0V0h5.274zm12.09 0c2.025 0 3.662 1.572 3.762 3.569l.005.194V9.39c0 2.023-1.591 3.676-3.574 3.777l-.193.005h-1.507c-2.007 0-3.66-1.607-3.762-3.59l-.005-.192V3.763c0-2.005 1.59-3.657 3.574-3.758L15.857 0h1.507zM29.4 0c2.026 0 3.662 1.572 3.762 3.569l.005.194V9.39c0 2.023-1.59 3.676-3.574 3.777l-.193.005h-1.507c-2.007 0-3.66-1.607-3.762-3.59l-.005-.192V3.763c0-2.005 1.591-3.657 3.574-3.758L27.893 0H29.4zm11.77 0c2.147 0 3.899 1.731 3.899 3.876v.376h-2.637v-.376c0-.677-.565-1.242-1.262-1.242h-.885c-.829 0-1.243.339-1.243.866 0 1.298 6.215 1.975 6.215 5.983 0 2.088-1.695 3.688-3.899 3.688h-1.262c-2.147 0-3.88-1.731-3.88-3.876V8.73h2.637v.565c0 .677.565 1.242 1.243 1.242h1.262c.773 0 1.262-.452 1.262-1.054 0-2.126-6.215-2.145-6.215-5.983 0-2.051 1.638-3.5 3.88-3.5zm12.809 0l3.315 9.013v4.158h-2.637v-2.296H50.89v2.296h-2.637V9.013L51.568 0h2.41zm9.735 0l3.033 7.808V0h2.637v13.17h-3.372L62.98 5.363v7.809h-2.637V0h3.371zM5.243 2.613H2.62v7.892h2.622c.576 0 1.055-.443 1.116-1.008l.007-.122V3.743c0-.622-.487-1.13-1.123-1.13zm12.143 0h-1.498c-.594 0-1.058.443-1.117 1.007l-.006.123v5.632c0 .58.44 1.061 1.001 1.123l.122.007h1.498c.577 0 1.056-.443 1.117-1.008l.006-.122V3.743c0-.64-.486-1.13-1.123-1.13zm12.036 0h-1.497c-.595 0-1.058.443-1.117 1.007l-.007.123v5.632c0 .58.44 1.061 1.002 1.123l.122.007h1.497c.577 0 1.056-.443 1.117-1.008l.007-.122V3.743c0-.64-.487-1.13-1.124-1.13zM52.8 4.319l-1.444 3.893h2.888L52.8 4.319zM2.505 18.503l2.015 4.384 2.016-4.384H9.04v13.17H6.404v-6.98l-1.13 2.428H3.767l-1.13-2.428v6.98H0v-13.17h2.505zm14.859 0c2.025 0 3.662 1.572 3.762 3.569l.005.194v5.626c0 2.023-1.591 3.676-3.574 3.777l-.193.005h-1.507c-2.007 0-3.66-1.607-3.762-3.59l-.005-.192v-5.626c0-2.005 1.59-3.657 3.574-3.758l.193-.005h1.507zm15.803 0v2.634h-3.202v10.537h-2.637V21.137h-3.202v-2.634h9.041zm8.323 0c2.025 0 3.662 1.572 3.762 3.569l.005.194v5.626c0 2.023-1.59 3.676-3.574 3.777l-.193.005h-1.507c-2.007 0-3.66-1.607-3.762-3.59l-.005-.192v-5.626c0-2.005 1.591-3.657 3.574-3.758l.193-.005h1.507zm12.037 0c2.025 0 3.661 1.572 3.762 3.569l.005.194v1.13c0 1.472-.824 2.722-2.046 3.356l-.177.086 2.223 4.836h-2.901l-2.053-4.516h-1.45v4.516h-2.637v-13.17h5.274zM17.386 21.17h-1.498c-.594 0-1.058.443-1.117 1.008l-.006.122v5.632c0 .58.44 1.062 1.001 1.123l.122.007h1.498c.577 0 1.056-.443 1.117-1.007l.006-.123v-5.632c0-.64-.486-1.13-1.123-1.13zm24.073 0H39.96c-.594 0-1.058.443-1.117 1.008l-.006.122v5.632c0 .58.44 1.062 1.001 1.123l.122.007h1.498c.577 0 1.055-.443 1.117-1.007l.006-.123v-5.632c0-.64-.486-1.13-1.123-1.13zm12.036 0h-2.62v3.36h2.62c.595 0 1.058-.423 1.117-.995l.007-.125v-1.12c0-.635-.487-1.12-1.124-1.12z" transform="translate(40.828)"/>
            </g>
        </g>
    </symbol>

    <symbol id="doosan_white" width="111px" height="32px" viewBox="0 0 111 32" preserveAspectRatio="xMinYMin">
        <g>
            <path fill="#FFFFFF" d="M17.836 8l1.05 12-1.05 12h-3.672l-1.05-12 1.05-12h3.672zM4.196 0L5.77 16 4.197 32H0V0h4.197zM32 0v32h-4.197L26.23 16l1.573-16H32z"/>
            <path fill="#FFFFFF" fill-rule="nonzero" d="M5.274 0c2.007 0 3.66 1.59 3.762 3.57l.005.193V9.39c0 2.005-1.591 3.674-3.574 3.777l-.193.005H0V0h5.274zm12.09 0c2.025 0 3.662 1.572 3.762 3.569l.005.194V9.39c0 2.023-1.591 3.676-3.574 3.777l-.193.005h-1.507c-2.007 0-3.66-1.607-3.762-3.59l-.005-.192V3.763c0-2.005 1.59-3.657 3.574-3.758L15.857 0h1.507zM29.4 0c2.026 0 3.662 1.572 3.762 3.569l.005.194V9.39c0 2.023-1.59 3.676-3.574 3.777l-.193.005h-1.507c-2.007 0-3.66-1.607-3.762-3.59l-.005-.192V3.763c0-2.005 1.591-3.657 3.574-3.758L27.893 0H29.4zm11.77 0c2.147 0 3.899 1.731 3.899 3.876v.376h-2.637v-.376c0-.677-.565-1.242-1.262-1.242h-.885c-.829 0-1.243.339-1.243.866 0 1.298 6.215 1.975 6.215 5.983 0 2.088-1.695 3.688-3.899 3.688h-1.262c-2.147 0-3.88-1.731-3.88-3.876V8.73h2.637v.565c0 .677.565 1.242 1.243 1.242h1.262c.773 0 1.262-.452 1.262-1.054 0-2.126-6.215-2.145-6.215-5.983 0-2.051 1.638-3.5 3.88-3.5zm12.809 0l3.315 9.013v4.158h-2.637v-2.296H50.89v2.296h-2.637V9.013L51.568 0h2.41zm9.735 0l3.033 7.808V0h2.637v13.17h-3.372L62.98 5.363v7.809h-2.637V0h3.371zM5.243 2.613H2.62v7.892h2.622c.576 0 1.055-.443 1.116-1.008l.007-.122V3.743c0-.622-.487-1.13-1.123-1.13zm12.143 0h-1.498c-.594 0-1.058.443-1.117 1.007l-.006.123v5.632c0 .58.44 1.061 1.001 1.123l.122.007h1.498c.577 0 1.056-.443 1.117-1.008l.006-.122V3.743c0-.64-.486-1.13-1.123-1.13zm12.036 0h-1.497c-.595 0-1.058.443-1.117 1.007l-.007.123v5.632c0 .58.44 1.061 1.002 1.123l.122.007h1.497c.577 0 1.056-.443 1.117-1.008l.007-.122V3.743c0-.64-.487-1.13-1.124-1.13zM52.8 4.319l-1.444 3.893h2.888L52.8 4.319zM2.505 18.503l2.015 4.384 2.016-4.384H9.04v13.17H6.404v-6.98l-1.13 2.428H3.767l-1.13-2.428v6.98H0v-13.17h2.505zm14.859 0c2.025 0 3.662 1.572 3.762 3.569l.005.194v5.626c0 2.023-1.591 3.676-3.574 3.777l-.193.005h-1.507c-2.007 0-3.66-1.607-3.762-3.59l-.005-.192v-5.626c0-2.005 1.59-3.657 3.574-3.758l.193-.005h1.507zm15.803 0v2.634h-3.202v10.537h-2.637V21.137h-3.202v-2.634h9.041zm8.323 0c2.025 0 3.662 1.572 3.762 3.569l.005.194v5.626c0 2.023-1.59 3.676-3.574 3.777l-.193.005h-1.507c-2.007 0-3.66-1.607-3.762-3.59l-.005-.192v-5.626c0-2.005 1.591-3.657 3.574-3.758l.193-.005h1.507zm12.037 0c2.025 0 3.661 1.572 3.762 3.569l.005.194v1.13c0 1.472-.824 2.722-2.046 3.356l-.177.086 2.223 4.836h-2.901l-2.053-4.516h-1.45v4.516h-2.637v-13.17h5.274zM17.386 21.17h-1.498c-.594 0-1.058.443-1.117 1.008l-.006.122v5.632c0 .58.44 1.062 1.001 1.123l.122.007h1.498c.577 0 1.056-.443 1.117-1.007l.006-.123v-5.632c0-.64-.486-1.13-1.123-1.13zm24.073 0H39.96c-.594 0-1.058.443-1.117 1.008l-.006.122v5.632c0 .58.44 1.062 1.001 1.123l.122.007h1.498c.577 0 1.055-.443 1.117-1.007l.006-.123v-5.632c0-.64-.486-1.13-1.123-1.13zm12.036 0h-2.62v3.36h2.62c.595 0 1.058-.423 1.117-.995l.007-.125v-1.12c0-.635-.487-1.12-1.124-1.12z" transform="translate(40.828)"/>
        </g>
    </symbol>

    <symbol id="daegu" width="142px" height="32px" viewBox="0 0 142 32">
        <g fill="none" fill-rule="evenode" opacity=".4">
            <g>
                <g>
                    <path fill="#000" d="M0 24.07L12.85 3.83l1.806 3.107L4.367 23.02S.672 23.734 0 24.07M19.527 1.268l-13.69 21.5s2.352-.21 2.772-.168L20.786 3.661l-1.26-2.393zM24.712 0L10.308 22.886s11.38-.504 17.217.504c0 0 11.884 1.68 8.735 5.333 0 0-1.344 1.47-6.048 2.52 0 0 8.567-.42 9.785-4.493 0 0 .504-1.26-.21-2.352L24.712 0zM2.73 30.789h2.233c1.702 0 2.14-1.678 2.14-2.842 0-1.028-.36-2.585-2.097-2.585H2.729v5.427zm1.055-4.49h1.034c.46 0 1.185.129 1.185 1.73 0 .893-.295 1.823-1.17 1.823H3.785v-3.553zM8.72 29.67h1.903l.33 1.119h1.17l-1.817-5.427H9.064l-1.838 5.427H8.36l.358-1.12zm.947-3.084h.014l.64 2.146H9.007l.66-2.146z" transform="translate(-105 -186) translate(105 186)"/>
                    <path fill="#000" d="M16.604 26.322L13.868 26.322 13.868 27.463 16.381 27.463 16.381 28.423 13.868 28.423 13.868 29.829 16.726 29.829 16.726 30.789 12.813 30.789 12.813 25.362 16.604 25.362zM20.022 27.864h2.154v2.925h-.718l-.107-.68c-.273.332-.669.823-1.61.823-1.241 0-2.369-.937-2.369-2.842 0-1.482.783-2.88 2.52-2.872 1.58 0 2.205 1.08 2.263 1.83h-1.077c0-.213-.367-.893-1.128-.893-.768 0-1.479.56-1.479 1.95 0 1.482.768 1.868 1.5 1.868.238 0 1.027-.099 1.25-1.194h-1.2v-.915zM27.318 28.892c0 1.428-.82 2.04-2.119 2.04-.474 0-1.178-.12-1.637-.657-.28-.333-.388-.771-.402-1.316v-3.597h1.098v3.522c0 .756.417 1.089.92 1.089.74 0 1.041-.379 1.041-1.036v-3.575h1.099v3.53zM119.307 14.466c.021-.132.033-.266.033-.402 0-.152-.016-.3-.042-.448h1.82v.848l-1.81.002zm-5.29 1.412c-1.566 0-2.835-.812-2.835-1.814s1.27-1.814 2.835-1.814c1.567 0 2.837.812 2.837 1.814s-1.27 1.814-2.837 1.814zm9.437-6.04l-2.336-.007v1.91l-2.963-.003c-.976-.838-2.466-1.375-4.138-1.375-2.939 0-5.32 1.657-5.32 3.7 0 2.045 2.381 3.701 5.32 3.701 1.715 0 3.24-.564 4.213-1.44h2.888v2.156H109.87v1.862l11.236.007v3.485h2.355l-.008-13.996zM138.014 9.831l-.005 9.22c-1.947-.025-3.41-.305-4.067-.991-1.623-1.697-1.879-3.004-2.096-4.433-.07-.45-.066-1.29-.066-1.29v-2.175l-2.357-.002-.004 2.178s.004.838-.064 1.29c-.218 1.428-.113 3.011-1.906 4.596-.882.779-1.946 1.298-2.672 1.558l1.651 1.588c1.669-.78 2.602-1.617 3.215-2.459.315-.432.62-.856.967-1.793.347.937.642 1.38 1.017 1.75 1.843 1.813 3.65 2.25 6.381 2.19l.007 2.776h2.348v-14l-2.35-.003zM56.604 21.06c-.533 0-.899-.459-.899-1.016l.001-9.462 6.68-.007v1.877H58.05v6.734l5.988.005V9.835l2.353-.012v5.38h1.454l-.004-5.382 2.345.003-.003 14.01h-2.336V17.07h-1.456v6.764h-2.353v-2.77l-7.434-.003zM86.918 10.24l-13.543-.002.004 1.87 12.134.006v4.539l-12.526.002v1.864h6.316v5.319l2.335.002v-5.32h6.778l-.001-1.866h-.555l-.001-5.738c.003.03 0-.032 0 0-.042-.51-.47-.671-.94-.676M98.611 22.359c-2.19 0-3.965-.588-3.965-1.312 0-.724 1.775-1.311 3.965-1.311s3.966.587 3.966 1.31c0 .725-1.775 1.313-3.966 1.313zm8.273-9.726h-1.244V9.838l-2.35-.007.004 5.47-1.695.003v-3.678c0-.558-.533-.973-1.034-.973l-9.364-.001-.005 1.875h8.046v2.78l-3.228-.002v-1.92l-2.339-.002v1.921H90.82v1.863h12.474l.001 1.453c-1.248-.525-2.869-.844-4.683-.844-3.882 0-7.031 1.464-7.031 3.27 0 1.808 3.15 3.272 7.031 3.272 3.857 0 6.972-1.444 7.016-3.233l.013-6.58h1.24l.004-1.872zM55.301 30.073h1.886c1.436 0 1.806-1.18 1.806-1.999 0-.723-.303-1.818-1.77-1.818h-1.922v3.817zm.891-3.158h.874c.387 0 1 .09 1 1.218 0 .627-.25 1.281-.989 1.281h-.885v-2.499zM60.358 29.287h1.607l.278.786h.989l-1.534-3.817H60.65l-1.552 3.817h.958l.303-.786zm.8-2.17h.013l.539 1.51H60.6l.558-1.51zM67.014 26.931L64.705 26.931 64.705 27.734 66.826 27.734 66.826 28.409 64.705 28.409 64.705 29.398 67.117 29.398 67.117 30.073 63.813 30.073 63.813 26.256 67.014 26.256zM69.9 28.015h1.817v2.058h-.605l-.091-.479c-.23.235-.565.58-1.358.58-1.048 0-2.001-.66-2.001-1.999 0-1.042.661-2.025 2.129-2.02 1.333 0 1.86.76 1.91 1.287h-.91c0-.15-.31-.628-.952-.628-.648 0-1.249.394-1.249 1.372 0 1.042.649 1.312 1.267 1.312.2 0 .867-.068 1.055-.84H69.9v-.643zM76.058 28.739c0 1.004-.69 1.435-1.788 1.435-.4 0-.994-.085-1.382-.462-.237-.235-.328-.543-.34-.925v-2.53h.928v2.476c0 .532.352.766.776.766.625 0 .88-.266.88-.728v-2.515h.926v2.483zM82.811 30.073L81.962 30.073 81.962 26.883 81.95 26.883 81.138 30.073 80.247 30.073 79.452 26.883 79.44 26.883 79.44 30.073 78.593 30.073 78.593 26.256 79.92 26.256 80.708 29.265 80.72 29.265 81.495 26.256 82.811 26.256zM86.885 26.931L84.575 26.931 84.575 27.734 86.697 27.734 86.697 28.409 84.575 28.409 84.575 29.398 86.989 29.398 86.989 30.073 83.685 30.073 83.685 26.256 86.885 26.256zM89.576 30.073L88.667 30.073 88.667 26.931 87.351 26.931 87.351 26.256 90.891 26.256 90.891 26.931 89.576 26.931zM91.43 30.073h.892V28.58h.94c.673 0 .71.202.71.723 0 .394.036.59.096.771h1.006v-.101c-.194-.064-.194-.202-.194-.76 0-.713-.194-.83-.552-.968.431-.127.674-.489.674-.908 0-.33-.212-1.08-1.37-1.08H91.43v3.817zm.892-2.137v-1.021h1.134c.534 0 .636.298.636.5 0 .377-.23.52-.703.52h-1.067zM95.494 28.165c0 1.791 1.516 2.009 2.091 2.009.577 0 2.091-.218 2.091-2.01 0-1.791-1.514-2.009-2.09-2.009-.576 0-2.092.218-2.092 2.01m.91 0c0-1.07.69-1.335 1.181-1.335.491 0 1.183.266 1.183 1.335 0 1.068-.692 1.334-1.183 1.334-.49 0-1.182-.266-1.182-1.334M101.313 28.696h1.043c1.17 0 1.388-.872 1.388-1.217 0-.75-.51-1.223-1.352-1.223h-1.988v3.817h.91v-1.377zm0-.66v-1.121h.722c.563 0 .8.155.8.527 0 .17 0 .595-.679.595h-.843zM104.254 28.165c0 1.791 1.514 2.009 2.09 2.009.577 0 2.093-.218 2.093-2.01 0-1.791-1.516-2.009-2.092-2.009-.577 0-2.091.218-2.091 2.01m.909 0c0-1.07.69-1.335 1.182-1.335.49 0 1.182.266 1.182 1.335 0 1.068-.691 1.334-1.182 1.334-.492 0-1.182-.266-1.182-1.334M110.072 29.382L112.237 29.382 112.237 30.073 109.164 30.073 109.164 26.256 110.072 26.256zM112.795 30.073L113.704 30.073 113.704 26.256 112.795 26.256zM116.402 30.073L115.493 30.073 115.493 26.931 114.177 26.931 114.177 26.256 117.717 26.256 117.717 26.931 116.402 26.931zM118.633 29.287h1.607l.279.786h.987l-1.533-3.817h-1.049l-1.552 3.817h.959l.302-.786zm.8-2.17h.012l.539 1.51h-1.109l.559-1.51zM124.743 26.256L125.593 26.256 125.593 30.073 124.683 30.073 122.907 27.351 122.895 27.351 122.895 30.073 122.046 30.073 122.046 26.256 123.003 26.256 124.732 28.914 124.743 28.914zM130.927 27.505c-.074-.229-.213-.66-.964-.66-.437 0-1.08.256-1.08 1.336 0 .685.31 1.302 1.08 1.302.503 0 .855-.25.964-.718h.908c-.18.83-.8 1.409-1.89 1.409-1.158 0-1.988-.686-1.988-2.004 0-1.335.878-2.015 2-2.015 1.303 0 1.83.787 1.878 1.35h-.908zM132.454 30.073L133.364 30.073 133.364 26.256 132.454 26.256zM136.061 30.073L135.152 30.073 135.152 26.931 133.836 26.931 133.836 26.256 137.377 26.256 137.377 26.931 136.061 26.931zM139.959 30.073L139.049 30.073 139.049 28.632 137.546 26.256 138.619 26.256 139.522 27.915 140.383 26.256 141.414 26.256 139.959 28.643z" transform="translate(-105 -186) translate(105 186)"/>
                    <path stroke="#000" stroke-width="1.011" d="M46.906 10.407L47.11 30.433" opacity=".402" transform="translate(-105 -186) translate(105 186)"/>
                </g>
            </g>
        </g>
    </symbol>

    <symbol id="suseong" width="80px" height="33px" viewBox="0 0 80 33">
        <defs>
            <path id="n9m4pqb14a" d="M0 0.047L6.67 0.047 6.67 9.266 0 9.266z"/>
            <path id="vpc8eazevc" d="M0.136 0.047L6.807 0.047 6.807 9.266 0.136 9.266z"/>
            <path id="nwc52dtcne" d="M0.147 0.025L26.405 0.025 26.405 12.811 0.147 12.811z"/>
        </defs>
        <g fill="none" fill-rule="evenodd" opacity=".6">
            <g>
                <g>
                    <g transform="translate(-271 -185) translate(271 185) translate(0 22.41)">
                        <mask id="ojnpfecheb" fill="#fff">
                            <use href="#n9m4pqb14a"/>
                        </mask>
                        <path fill="#888788" d="M5.638.52C5.37.4 5.025.29 4.611.192 4.197.096 3.74.047 3.25.047c-.677 0-1.258.116-1.725.346C1.066.62.722.925.5 1.301c-.222.376-.334.806-.334 1.275 0 .485.11.91.33 1.262.223.36.517.664.871.902.364.247.794.477 1.275.685.464.192.818.387 1.039.552.27.2.52.43.481.747-.036.285-.161.389-.325.5-.247.168-.59.19-.963.155-.565-.054-1.047-.257-1.502-.455-.37-.162-.749-.363-1.372-.86v2.25c.686.461 1.117.613 1.526.716.437.108.79.175 1.055.2.265.025.49.036.672.036.642 0 1.38-.11 1.873-.326.486-.212.87-.523 1.14-.921.27-.396.404-.872.404-1.418 0-.487-.11-.9-.327-1.224-.224-.331-.538-.629-.934-.886-.41-.263-.965-.565-1.65-.896-.4-.199-.673-.368-.835-.511-.183-.165-.297-.365-.274-.593.02-.214.114-.313.266-.427.193-.145.463-.194.84-.194.532 0 1.047.125 1.527.321.46.188.687.32.997.532V.829C6.194.78 5.887.632 5.638.52" mask="url(#ojnpfecheb)"/>
                    </g>
                    <g transform="translate(-271 -185) translate(271 185) translate(23.063 22.41)">
                        <mask id="5kpi297t0d" fill="#fff">
                            <use href="#vpc8eazevc"/>
                        </mask>
                        <path fill="#231916" d="M5.773.52C5.506.4 5.16.29 4.746.192 4.333.096 3.876.047 3.388.047c-.678 0-1.259.116-1.725.346-.46.226-.806.532-1.028.908-.221.376-.333.806-.333 1.275 0 .485.11.91.33 1.262.223.36.517.664.871.902.364.247.793.477 1.275.685.464.192.818.387 1.038.552.271.2.521.43.481.747-.036.285-.16.389-.324.5-.247.168-.59.19-.964.155-.565-.054-1.046-.257-1.501-.455-.37-.162-.749-.363-1.372-.86v2.25c.686.461 1.117.613 1.527.716.435.108.79.175 1.054.2.265.025.491.036.672.036.641 0 1.379-.11 1.873-.326.486-.212.87-.523 1.14-.921.268-.396.405-.872.405-1.418 0-.487-.111-.9-.329-1.224-.223-.331-.538-.629-.933-.886-.41-.263-.965-.565-1.65-.896-.4-.199-.673-.368-.835-.511-.183-.165-.297-.365-.274-.593.021-.214.114-.313.265-.427.194-.145.464-.194.84-.194.533 0 1.047.125 1.527.321.46.188.688.32.999.532V.829C6.329.78 6.023.632 5.773.52" mask="url(#5kpi297t0d)"/>
                    </g>
                    <path fill="#888788" d="M16.622 26.916c-.025.623-.063 1.16-.22 1.574-.16.422-.52.725-.813.923-.29.195-.623.283-.993.283-.385 0-.726-.09-1.012-.287-.29-.2-.618-.494-.778-.919-.156-.412-.212-.961-.25-1.588V22.62h-1.993v4.924c0 .983.205 1.79.61 2.396.407.61.92 1.049 1.526 1.303.613.26 1.254.39 1.903.39.464 0 .937-.07 1.405-.207.462-.137.9-.364 1.302-.677.395-.307.718-.733.958-1.261.241-.53.364-1.184.364-1.944V22.62h-2.009v4.296z" transform="translate(-271 -185) translate(271 185)"/>
                    <path fill="#231916" d="M36.859 26.168L36.608 26.168 36.608 26.017 36.608 24.311 36.608 24.16 36.859 24.16 40.661 24.16 40.661 22.62 34.474 22.62 34.474 31.514 40.764 31.514 40.764 29.975 36.859 29.975 36.608 29.975 36.608 29.821 36.608 27.86 36.608 27.707 36.859 27.707 40.492 27.707 40.492 26.168zM51.431 28.411c-.189.397-.47.71-.83.936-.363.221-.8.333-1.306.333-.739 0-1.33-.244-1.761-.728-.43-.481-.649-1.115-.649-1.888 0-.772.217-1.406.646-1.886.428-.48 1.022-.723 1.764-.723.385 0 .73.064 1.028.193.299.13.557.315.764.548.21.234.369.515.471.83.102.315.152.664.152 1.038 0 .502-.093.954-.279 1.347m1.321-4.552c-.373-.413-.858-.745-1.442-.99-.586-.244-1.264-.367-2.015-.367-1.004 0-1.864.215-2.557.64-.69.424-1.209.987-1.538 1.675-.334.693-.503 1.447-.503 2.247 0 .794.17 1.548.504 2.243.335.69.852 1.257 1.54 1.68.69.429 1.55.646 2.554.646.992 0 1.844-.207 2.531-.618.684-.409 1.206-.966 1.55-1.658.348-.694.524-1.467.524-2.293 0-.61-.098-1.199-.292-1.751-.194-.55-.482-1.04-.856-1.454M60.197 31.514L60.197 25.911 64.329 31.518 66.226 31.514 66.226 22.62 64.123 22.62 64.123 28.065 60.017 22.62 58.069 22.62 58.069 31.514zM76.82 22.714c-.466-.12-1.09-.212-1.81-.212-.436 0-.84.027-1.205.084-.358.056-.73.167-1.104.333-.373.162-.69.384-1.052.703-.317.279-.738.885-.95 1.503-.215.626-.324 1.275-.324 1.926 0 1.008.21 1.868.625 2.554.414.688.889 1.204 1.578 1.53.699.33 1.472.498 2.295.498.415 0 .814-.026 1.185-.076.373-.049.752-.124 1.125-.22.224-.06.395-.111.508-.15.128-.042.248-.086.367-.13.107-.042.233-.092.37-.15v-4.143h-3.054v1.539H76.506v1.343l-.108.028c-.37.094-.726.142-1.057.142-.583 0-1.25-.072-1.666-.318-.42-.25-.7-.58-.908-.995-.208-.41-.36-.916-.36-1.404 0-.415.061-.866.24-1.302.18-.446.5-.831.96-1.148.457-.32 1.265-.469 2.016-.469.643 0 1.19.086 1.625.253.352.137.69.31 1.017.52v-1.736c-.51-.234-.998-.39-1.445-.503" transform="translate(-271 -185) translate(271 185)"/>
                    <path fill="#F9C44A" d="M38.748 1.646c-.34-.018-.672-.033-.992-.045 1.007-.954 1.886-1.628 2.59-1.6.584.01.983.65.972 1.8-.9-.052-1.758-.108-2.57-.155M23.33 15.559c.205-1.084 1.503-2.207 3.06-3.496 1.585-1.285 3.425-2.734 5.322-4.477 1.088-.992 2.095-1.985 3.029-2.934.309.324.701.655 1.186.983.889.614 2.105 1.216 3.558 1.69-1.021 1.814-2.481 3.759-4.375 5.458-3.105 2.893-6.462 4.245-8.659 4.457-.247.026-.48.039-.698.039-1.77 0-2.609-.814-2.423-1.72" transform="translate(-271 -185) translate(271 185)"/>
                    <g transform="translate(-271 -185) translate(271 185) translate(52.097 4.702)">
                        <mask id="103mh5weof" fill="#fff">
                            <use href="#nwc52dtcne"/>
                        </mask>
                        <path fill="#76AFDF" d="M13.072 12.326c-2.678-.555-5.386-1.644-7.596-3.202C2.284 6.92.753 4.482.146 2.554 1.51 2.092 2.654 1.519 3.499.935 3.946.63 4.316.323 4.61.024c.424.413.879.868 1.376 1.335 1.578 1.5 3.596 3.155 6.351 4.527 2.738 1.383 5.756 2.2 8.484 2.645 2.68.474 5.08.565 5.52 1.301.453.64-1.538 2.21-5.857 2.803-.83.11-1.753.175-2.732.175-1.473 0-3.07-.145-4.681-.485" mask="url(#103mh5weof)"/>
                    </g>
                    <path fill="#4F81C2" d="M34.201 2.174c.65-.569 1.958-.63 3.556-.572-.334.316-.68.662-1.04 1.023-.622.635-1.278 1.318-1.977 2.028-.992-1.042-1.104-1.998-.539-2.479m5.284 5.15c.677-1.201 1.16-2.345 1.45-3.324.259-.86.377-1.6.384-2.2 2.157.12 3.388.14 4.44.138 2.58.007 4.95-.172 7.013-.292 2.038-.104 3.768-.155 4.545.528.582.494.45 1.483-.609 2.553-.925-.902-1.701-1.618-2.49-1.9-.052-.02-.104-.037-.157-.051-.03-.009-.058-.016-.088-.022-.112-.025-.224-.036-.335-.036-.04 0-.08.001-.12.004-.82.068-1.546.824-1.603 2.422-.001.036-.003.072-.003.11-.002.559.093 1.24.332 2.003-1.78.602-3.935 1.015-6.293 1.015h-.192l-.201.002c-2.263 0-4.337-.386-6.073-.95" transform="translate(-271 -185) translate(271 185)"/>
                    <path fill="#865306" d="M35.927 5.635c-.485-.328-.877-.66-1.186-.983.698-.708 1.355-1.39 1.976-2.027.36-.362.707-.708 1.04-1.024.32.012.651.027.991.045.812.047 1.67.103 2.57.154-.004.6-.122 1.339-.383 2.2-.29.978-.773 2.123-1.45 3.325-1.453-.474-2.67-1.076-3.558-1.69" transform="translate(-271 -185) translate(271 185)"/>
                    <path fill="#4D5289" d="M52.243 7.257c-.238-.764-.332-1.444-.33-2.003l.001-.11c.058-1.598.785-2.354 1.603-2.422.04-.003.08-.004.12-.004.112 0 .224.011.336.036.03.006.058.013.087.022.054.014.106.03.159.05.787.283 1.564 1 2.49 1.901-.297.3-.667.605-1.115.908-.844.585-1.988 1.158-3.35 1.622" transform="translate(-271 -185) translate(271 185)"/>
                    <path fill="#8582BC" d="M53.638 2.718c-.04 0-.081.001-.12.004.039-.003.08-.004.12-.004m.335.036c.03.006.058.013.088.022-.03-.009-.058-.016-.088-.022m-2.06 2.5c-.003.559.092 1.24.33 2.003-.238-.764-.333-1.444-.33-2.003" transform="translate(-271 -185) translate(271 185)"/>
                    <path fill="#0063AF" d="M53.638 2.718c-.04 0-.081.001-.12.004.039-.003.08-.004.12-.004m.335.036c.03.006.058.013.088.022-.03-.009-.058-.016-.088-.022" transform="translate(-271 -185) translate(271 185)"/>
                </g>
            </g>
        </g>
    </symbol>
</svg>